<svg width="200" height="200" xmlns="http://www.w3.org/2000/svg" version="1.1" preserveAspectRatio="none" class="svg-canvas">
 <!--滤镜-->

 <!-- 背景 -->
 <!--元素-->
 <g>
  <title>background</title>
  <rect fill="none" id="canvas_background" height="202" width="202" y="-1" x="-1"/>
 </g>
 <g>
  <title>Layer 1</title>
  <g key="shape_F8D6smEFOC" ref="shape_F8D6smEFOC" id="shape_F8D6smEFOC">
   <g id="svg_41" transform="translate(80.1511001586914,228.5342559814453) scale(1) ">
    <!--普通元素-->
    <rect id="svg_42" y="-205" x="-82" height="145.722793" width="201.795501" fill="rgba(0,0,0,0)"/>
    <svg data-parent="shape_F8D6smEFOC" preserveAspectRatio="none" class="style-removed" height="125.722793" width="181.795501" xml:space="preserve" viewBox="-0.06501388549804688 0.06785464286804199 382.7650146484375 264.7055969238281" y="-195" x="-72" id="svg_3" version="1.1" xmlns:xlink="http://www.w3.org/1999/xlink" xmlns="http://www.w3.org/2000/svg">
     <g id="svg_43">
      <path id="svg_44" stroke-width="0" fill="#120CF4" d="m316.2,92.2l-23.6,9.3l-9.8,3.9c4.2,14.2 5.1,29.6 2.1,45.1c-10,52.2 -60.4,86.4 -112.5,76.4c-15.3,-2.9 -29,-9.3 -40.6,-18.2c17.1,-9.6 35,-20.7 53.1,-33.1c27.8,-19.1 56,-42.7 76.3,-61.5c-16.9,14.6 -42.2,31.5 -63.9,46.5c-25,17.2 -49.8,31.5 -72.1,42.5c-23.5,-21.8 -35.6,-54.8 -29.1,-88.6c10,-52.2 60.4,-86.4 112.5,-76.4c29.7,5.7 53.7,24.5 66.9,49.3l3.2,-4.3l15.4,-20.1c1.8,-2.3 3.1,-4.8 4.1,-7.5c-19.1,-26.7 -48,-46.3 -82.7,-53c-71.9,-13.9 -141.2,33.2 -155,105c-2.8,14.8 -3.1,29.4 -1.1,43.5c-43.7,40 -67.5,75.7 -57,90.9c9.7,14.2 46.9,7 94.9,-15.5c18,17.9 41.4,30.8 68.3,36c71.8,13.7 141.1,-33.3 154.9,-105.1c4.3,-22.5 2.6,-44.8 -3.9,-65.2c-0.1,0 -0.2,0 -0.4,0.1zm-277.5,134.3c-3.9,-6.9 7,-24.2 28.3,-46.4c5.4,14 13.2,27 23,38.5c-28.2,10.8 -47.8,13.9 -51.3,7.9z"/>
      <path id="svg_45" stroke-width="0" fill="#120CF4" d="m367.3,39.2l15.4,-20.2l-23.6,9.3c-4.8,1.9 -9.8,2.8 -14.7,2.8c-8.7,0 -17.3,-2.8 -24.4,-8.3l-20.2,-15.4l9.3,23.6c4.7,12 3.4,25.4 -3.4,36.1c-0.6,1 -1.3,2 -2.1,3l-15.4,20.1l23.6,-9.3c0.2,-0.1 0.4,-0.2 0.6,-0.2c4.6,-1.7 9.4,-2.6 14.1,-2.6c8.7,0 17.3,2.8 24.4,8.3l20.1,15.4l-9.3,-23.6c-5,-13 -2.9,-27.8 5.6,-39z"/>
     </g>
    </svg>
   </g>
  </g>
 </g>
</svg>