<svg
        class="svg-canvas"
        viewBox="0 0 800 600"
        width="800"
        height="600"
        preserveAspectRatio="none"
        version="1.1"
        xmlns="http://www.w3.org/2000/svg"
        xmlns:xlink="http://www.w3.org/1999/xlink"
      >
        <!--滤镜-->
        <defs></defs>

        <!-- 背景 -->
        <g id="background">
            <rect
                    x="0"
                    y="0"
                    fill="#ffffff"
                    width="800"
                    height="600"
                  ></rect>
            
          </g>

        <!--元素-->
        
                <g
                  id="shape_oEnKZcWlNX"
                  ref="shape_oEnKZcWlNX"
                  key="shape_oEnKZcWlNX"
                  mask=""
                >
                  <g
                    transform="translate(46.93188594750626,13.519547719638041) rotate(0,439.514715719065,258.014715719065) scale(1,1)"
                    style="opacity: 1;mix-blend-mode: undefined;"
                    filter=""
                  >
                    <!--普通元素-->
                    <svg xmlns="http://www.w3.org/2000/svg" version="1.1" xmlns:xlink="http://www.w3.org/1999/xlink" width="879.0294314381299" height="516.02943143813" viewBox="0 0 879.0294314381299 516.02943143813" data-ligature="true" data-parent="shape_oEnKZcWlNX"><g data-role="text" data-width="447.65081999999995" data-height="86" transform="translate(215.014715719065, 215.014715719065)"><path d="M62.64-28.02L21.21-28.02L14.76 0.50L0.57 0.50L10.75-44.36L8.53-47.02L30.82-47.02L31.03-48.16L28.67-50.89L46.87-50.89L46.30-47.02L65.29-47.02L62.64-28.02ZM20.86-23.72L61.99-23.72L58.77-0.79L17.63-0.79L20.86-23.72ZM30.75-7.38L47.52-7.38L48.88-17.13L32.11-17.13L30.75-7.38ZM51.75-40.21L23.94-40.21L22.72-34.76L50.96-34.76L51.75-40.21Z" transform="translate(0 68) " fill="rgb(47, 47, 47)" stroke="rgb(47, 47, 47)" stroke-width="0.119" data-glyph-w="65.93639999999999" data-glyph-h="93.17099999999999" data-glyph-ascender="71.67" data-glyph-descender="-21.500999999999998" data-kerning="0"></path><path d="M53.25 0.57L43.65 0.57L47.37-3.37L49.24-16.99L41.21-16.99L37.99 0.57L26.45 0.57L35.55-49.67L64.93-49.67L58.55-4.16Q58.27-2.15 56.73-0.79Q55.19 0.57 53.25 0.57L53.25 0.57ZM0.93-2.29L7.10-46.16L5.81-48.23L30.60-48.23L24.08-2.29L0.93-2.29ZM11.25-8.74L15.98-8.74L17.92-22.43L13.19-22.43L11.25-8.74ZM15.91-41.78L14.12-29.17L18.85-29.17L20.64-41.78L15.91-41.78ZM43.65-29.96L42.50-23.79L50.24-23.79L51.10-29.96L43.65-29.96ZM46.08-42.86L44.94-36.77L52.03-36.77L52.89-42.86L46.08-42.86Z" transform="translate(65.93639999999999 68) " fill="rgb(47, 47, 47)" stroke="rgb(47, 47, 47)" stroke-width="0.119" data-glyph-w="65.93639999999999" data-glyph-h="93.17099999999999" data-glyph-ascender="71.67" data-glyph-descender="-21.500999999999998" data-kerning="0"></path><path d="M5.95-44.87L23.87-44.87L31.46-19.42L45.87-44.87L60.35-44.87L54.83-4.30L42.43-4.30L45.87-25.66L34.90-7.02L23.87-7.02L18.35-24.94L15.62-4.30L3.23-4.30L8.74-42.14L5.95-44.87Z" transform="translate(131.87279999999998 68) " fill="rgb(47, 47, 47)" stroke="rgb(47, 47, 47)" stroke-width="0.119" data-glyph-w="63.57129" data-glyph-h="93.17099999999999" data-glyph-ascender="71.67" data-glyph-descender="-21.500999999999998" data-kerning="0"></path><path d="M7.45-4.30L7.45-4.30Q6.45-4.30 5.59-4.66Q4.73-5.02 4.12-5.66Q3.51-6.31 3.30-7.20Q3.08-8.10 3.37-9.10L3.37-9.10L8.17-44.87L51.53-44.87L50.81-37.99L20.57-37.99L17.13-11.18L43.93-11.18L47.37-13.90L46.01-4.30L7.45-4.30Z" transform="translate(195.44409 68) " fill="rgb(47, 47, 47)" stroke="rgb(47, 47, 47)" stroke-width="0.119" data-glyph-w="54.397529999999996" data-glyph-h="93.17099999999999" data-glyph-ascender="71.67" data-glyph-descender="-21.500999999999998" data-kerning="0"></path><path d="M46.94-11.90L57.84 0.57L42.43 0.57L33.11-10.03L18.13 0.57L1.15 0.57L21.21-13.69L3.08-13.69L4.01-20.35L31.25-20.35L33.61-37.41L47.02-37.41L44.65-20.35L61.13-20.35L60.20-13.69L38.20-13.69L35.69-11.90L46.94-11.90ZM44.72-50.96L44.15-46.87L64.79-46.87L63.21-35.98L51.10-35.98L51.75-40.28L19.06-40.28L18.63-37.41L30.10-37.41L32.47-30.32L19.92-30.32L17.99-35.98L6.24-35.98L7.81-46.87L28.88-46.87L29.10-48.38L26.80-50.96L44.72-50.96ZM24.44-29.03L27.09-21.93L14.62-21.93L11.97-29.03L24.44-29.03Z" transform="translate(249.84161999999998 68) " fill="rgb(47, 47, 47)" stroke="rgb(47, 47, 47)" stroke-width="0.119" data-glyph-w="65.93639999999999" data-glyph-h="93.17099999999999" data-glyph-ascender="71.67" data-glyph-descender="-21.500999999999998" data-kerning="0"></path><path d="M16.70-21.86L3.73-21.86L9.32-40.21L16.77-40.21L13.40-28.67L15.91-28.67L20.43-42.86L7.53-42.86L8.46-49.67L30.24-49.67L29.31-42.86L24.94-28.67L27.59-28.67L24.15-4.16Q23.87-2.08 22.25-0.75Q20.64 0.57 18.63 0.57L18.63 0.57L4.80 0.57L9.39-6.31L14.48-6.31L16.70-21.86ZM42.29-35.12L52.39-35.12L50.46-44.65L47.16-44.65L39.28-29.38L28.81-29.38L38.92-48.16L36.62-50.81L58.84-50.81L64.00-29.46L53.61-29.46L52.75-33.47L52.18-28.45L40.92-28.45L42.29-35.12ZM54.76-25.44L63.64-25.44L57.34-7.24L61.56-7.24L60.63-0.57L25.08-0.57L26.02-7.24L48.45-7.24L54.76-25.44ZM29.24-25.44L38.13-25.44L37.99-8.67L29.10-8.67L29.24-25.44ZM40.49-25.44L49.38-25.44L48.52-8.74L39.63-8.74L40.49-25.44ZM2.87-17.06L14.55-18.49L13.55-11.40L1.86-9.96L2.87-17.06Z" transform="translate(315.77801999999997 68) " fill="rgb(47, 47, 47)" stroke="rgb(47, 47, 47)" stroke-width="0.119" data-glyph-w="65.93639999999999" data-glyph-h="93.17099999999999" data-glyph-ascender="71.67" data-glyph-descender="-21.500999999999998" data-kerning="0"></path><path d="M43.93-50.89L43.36-46.94L64.72-46.94L63.21-36.05L59.13-36.05L58.41-30.96L31.18-30.96L24.30-25.80L44.08-25.80L42.93-29.53L54.54-29.53L58.05-18.35L46.51-18.35L46.16-19.49L38.99-19.49L38.49-15.70L58.98-15.70L58.20-9.96L37.63-9.96L37.20-6.59L58.98-6.59L58.20-1.00L1.15-1.00L1.94-6.59L23.08-6.59L23.51-9.96L5.09-9.96L5.88-15.70L24.37-15.70L24.87-19.49L8.17-19.49L9.10-25.87L16.05-30.96L9.46-30.96L10.18-36.05L6.16-36.05L7.67-46.94L28.95-46.94L29.17-48.23L26.88-50.89L43.93-50.89ZM18.92-40.14L18.42-36.91L51.10-36.91L51.60-40.14L18.92-40.14Z" transform="translate(381.71441999999996 68) " fill="rgb(47, 47, 47)" stroke="rgb(47, 47, 47)" stroke-width="0.119" data-glyph-w="65.93639999999999" data-glyph-h="93.17099999999999" data-glyph-ascender="71.67" data-glyph-descender="-21.500999999999998" data-kerning="0"></path></g></svg>
                  </g>
                </g>
                <g
                  id="shape_DKqhGeARGZ"
                  ref="shape_DKqhGeARGZ"
                  key="shape_DKqhGeARGZ"
                  mask=""
                >
                  <g
                    transform="translate(168.9466016665712,221.53426343870308) rotate(0,325.9406779661017,111.5) scale(1,1)"
                    style="opacity: 1;mix-blend-mode: undefined;"
                    filter=""
                  >
                    <!--普通元素-->
                    <svg xmlns="http://www.w3.org/2000/svg" version="1.1" xmlns:xlink="http://www.w3.org/1999/xlink" width="651.8813559322034" height="223" viewBox="0 0 651.8813559322034 223" data-ligature="true" data-parent="shape_DKqhGeARGZ"><g data-role="text" data-width="449.89990234375" data-height="37" transform="translate(93, 93)"><path d="M16.35-8.90L0.91-8.90L0.91-12.91L16.35-12.91L16.35-8.90Z" transform="translate(0 28) " fill="rgb(47, 47, 47)" stroke="rgb(47, 47, 47)" stroke-width="0.052" data-glyph-w="21.255859375" data-glyph-h="32.3017578125" data-glyph-ascender="25.974609375" data-glyph-descender="-6.3271484375" data-kerning="0"></path><path d="M16.35-8.90L0.91-8.90L0.91-12.91L16.35-12.91L16.35-8.90Z" transform="translate(21.255859375 28) " fill="rgb(47, 47, 47)" stroke="rgb(47, 47, 47)" stroke-width="0.052" data-glyph-w="21.255859375" data-glyph-h="32.3017578125" data-glyph-ascender="25.974609375" data-glyph-descender="-6.3271484375" data-kerning="0"></path><path d="M16.35-8.90L0.91-8.90L0.91-12.91L16.35-12.91L16.35-8.90Z" transform="translate(42.51171875 28) " fill="rgb(47, 47, 47)" stroke="rgb(47, 47, 47)" stroke-width="0.052" data-glyph-w="21.255859375" data-glyph-h="32.3017578125" data-glyph-ascender="25.974609375" data-glyph-descender="-6.3271484375" data-kerning="0"></path><path d="M16.35-8.90L0.91-8.90L0.91-12.91L16.35-12.91L16.35-8.90Z" transform="translate(63.767578125 28) " fill="rgb(47, 47, 47)" stroke="rgb(47, 47, 47)" stroke-width="0.052" data-glyph-w="21.255859375" data-glyph-h="32.3017578125" data-glyph-ascender="25.974609375" data-glyph-descender="-6.3271484375" data-kerning="0"></path><path d="M16.35-8.90L0.91-8.90L0.91-12.91L16.35-12.91L16.35-8.90Z" transform="translate(85.0234375 28) " fill="rgb(47, 47, 47)" stroke="rgb(47, 47, 47)" stroke-width="0.052" data-glyph-w="21.255859375" data-glyph-h="32.3017578125" data-glyph-ascender="25.974609375" data-glyph-descender="-6.3271484375" data-kerning="0"></path><path d="M14.49-11.13L14.49-25.19L18.50-25.19L18.50-3.57L14.55-3.57L5.52-17.63L5.52-3.57L1.51-3.57L1.51-25.19L5.46-25.19L14.49-11.13Z" transform="translate(106.279296875 28) " fill="rgb(47, 47, 47)" stroke="rgb(47, 47, 47)" stroke-width="0.052" data-glyph-w="24.0107421875" data-glyph-h="32.3017578125" data-glyph-ascender="25.974609375" data-glyph-descender="-6.3271484375" data-kerning="0"></path><path d="M8.33-18.62Q11.52-18.62 13.79-16.36L13.79-16.36Q16.04-14.11 16.04-10.90L16.04-10.90Q16.04-7.70 13.79-5.45L13.79-5.45Q11.52-3.18 8.33-3.18L8.33-3.18Q5.13-3.18 2.86-5.45L2.86-5.45Q0.61-7.70 0.61-10.90L0.61-10.90Q0.61-14.11 2.86-16.36L2.86-16.36Q5.13-18.62 8.33-18.62L8.33-18.62ZM8.33-14.61L8.33-14.61Q6.80-14.61 5.71-13.52L5.71-13.52Q4.62-12.44 4.62-10.90L4.62-10.90Q4.62-9.37 5.71-8.28L5.71-8.28Q6.80-7.19 8.33-7.19L8.33-7.19Q9.87-7.19 10.94-8.28L10.94-8.28Q12.03-9.37 12.03-10.90L12.03-10.90Q12.03-12.44 10.94-13.52L10.94-13.52Q9.87-14.61 8.33-14.61Z" transform="translate(130.2900390625 28) " fill="rgb(47, 47, 47)" stroke="rgb(47, 47, 47)" stroke-width="0.052" data-glyph-w="20.650390625" data-glyph-h="32.3017578125" data-glyph-ascender="25.974609375" data-glyph-descender="-6.3271484375" data-kerning="0"></path><path d="M0-18.24L4.30-18.24L7.43-10.07L10.58-18.24L14.88-18.24L9.25-3.57L5.63-3.57L0-18.24Z" transform="translate(150.9404296875 28) " fill="rgb(47, 47, 47)" stroke="rgb(47, 47, 47)" stroke-width="0.052" data-glyph-w="18.87939453125" data-glyph-h="32.3017578125" data-glyph-ascender="25.974609375" data-glyph-descender="-6.3271484375" data-kerning="0"></path><path d="M7.95-7.19Q6.57-7.19 5.60-8.28L5.60-8.28Q4.62-9.37 4.62-10.90L4.62-10.90Q4.62-12.44 5.60-13.52L5.60-13.52Q6.57-14.61 7.95-14.61L7.95-14.61Q9.32-14.61 10.29-13.52L10.29-13.52Q11.26-12.44 11.26-10.90L11.26-10.90Q11.26-9.37 10.29-8.28L10.29-8.28Q9.32-7.19 7.95-7.19L7.95-7.19ZM11.26-17.68Q9.70-18.62 7.80-18.62L7.80-18.62Q4.81-18.62 2.71-16.36L2.71-16.36Q0.61-14.11 0.61-10.90L0.61-10.90Q0.61-7.70 2.71-5.45L2.71-5.45Q4.81-3.18 7.80-3.18L7.80-3.18Q9.70-3.18 11.26-4.12L11.26-4.12L11.26-3.57L15.27-3.57L15.27-18.24L11.26-18.24L11.26-17.68Z" transform="translate(169.81982421875 28) " fill="rgb(47, 47, 47)" stroke="rgb(47, 47, 47)" stroke-width="0.052" data-glyph-w="20.33251953125" data-glyph-h="32.3017578125" data-glyph-ascender="25.974609375" data-glyph-descender="-6.3271484375" data-kerning="0"></path><path d="M0,0Z" transform="translate(190.15234375 28) " fill="rgb(47, 47, 47)" stroke="rgb(47, 47, 47)" stroke-width="0.052" data-glyph-w="11.689453125" data-glyph-h="32.3017578125" data-glyph-ascender="25.974609375" data-glyph-descender="-6.3271484375" data-kerning="0"></path><path d="M11.02-9.35L5.52-17.82L5.52-3.57L1.51-3.57L1.51-25.19L5.52-25.19L12.70-14.12L19.89-25.19L23.90-25.19L23.90-3.57L19.89-3.57L19.89-17.83L14.40-9.35L11.02-9.35Z" transform="translate(201.841796875 28) " fill="rgb(47, 47, 47)" stroke="rgb(47, 47, 47)" stroke-width="0.052" data-glyph-w="29.41455078125" data-glyph-h="32.3017578125" data-glyph-ascender="25.974609375" data-glyph-descender="-6.3271484375" data-kerning="0"></path><path d="M12.11-25.58Q7.46-25.58 4.19-22.30L4.19-22.30Q0.91-19.01 0.91-14.38L0.91-14.38Q0.91-9.73 4.19-6.46L4.19-6.46Q7.46-3.18 12.11-3.18L12.11-3.18Q17.32-3.18 20.68-7.17L20.68-7.17L17.60-9.76Q15.45-7.19 12.11-7.19L12.11-7.19Q9.13-7.19 7.02-9.29L7.02-9.29Q4.92-11.40 4.92-14.38L4.92-14.38Q4.92-17.35 7.02-19.45L7.02-19.45Q9.13-21.55 12.11-21.55L12.11-21.55Q15.45-21.55 17.60-19.00L17.60-19.00L20.68-21.57Q17.32-25.58 12.11-25.58L12.11-25.58Z" transform="translate(231.25634765625 28) " fill="rgb(47, 47, 47)" stroke="rgb(47, 47, 47)" stroke-width="0.052" data-glyph-w="25.5849609375" data-glyph-h="32.3017578125" data-glyph-ascender="25.974609375" data-glyph-descender="-6.3271484375" data-kerning="0"></path><path d="M0,0Z" transform="translate(256.84130859375 28) " fill="rgb(47, 47, 47)" stroke="rgb(47, 47, 47)" stroke-width="0.052" data-glyph-w="11.689453125" data-glyph-h="32.3017578125" data-glyph-ascender="25.974609375" data-glyph-descender="-6.3271484375" data-kerning="0"></path><path d="M5.52-25.19L5.52-7.58L14.64-7.58L14.64-3.57L1.51-3.57L1.51-25.19L5.52-25.19Z" transform="translate(268.53076171875 28) " fill="rgb(47, 47, 47)" stroke="rgb(47, 47, 47)" stroke-width="0.052" data-glyph-w="19.54541015625" data-glyph-h="32.3017578125" data-glyph-ascender="25.974609375" data-glyph-descender="-6.3271484375" data-kerning="0"></path><path d="M7.95-7.19Q6.57-7.19 5.60-8.28L5.60-8.28Q4.62-9.37 4.62-10.90L4.62-10.90Q4.62-12.44 5.60-13.52L5.60-13.52Q6.57-14.61 7.95-14.61L7.95-14.61Q9.32-14.61 10.29-13.52L10.29-13.52Q11.26-12.44 11.26-10.90L11.26-10.90Q11.26-9.37 10.29-8.28L10.29-8.28Q9.32-7.19 7.95-7.19L7.95-7.19ZM11.26-17.68Q9.70-18.62 7.80-18.62L7.80-18.62Q4.81-18.62 2.71-16.36L2.71-16.36Q0.61-14.11 0.61-10.90L0.61-10.90Q0.61-7.70 2.71-5.45L2.71-5.45Q4.81-3.18 7.80-3.18L7.80-3.18Q9.70-3.18 11.26-4.12L11.26-4.12L11.26-3.57L15.27-3.57L15.27-18.24L11.26-18.24L11.26-17.68Z" transform="translate(288.076171875 28) " fill="rgb(47, 47, 47)" stroke="rgb(47, 47, 47)" stroke-width="0.052" data-glyph-w="20.33251953125" data-glyph-h="32.3017578125" data-glyph-ascender="25.974609375" data-glyph-descender="-6.3271484375" data-kerning="0"></path><path d="M8.40-7.19Q9.78-7.19 10.75-8.28L10.75-8.28Q11.72-9.37 11.72-10.90L11.72-10.90Q11.72-12.44 10.75-13.52L10.75-13.52Q9.78-14.61 8.40-14.61L8.40-14.61Q7.02-14.61 6.05-13.52L6.05-13.52Q5.07-12.44 5.07-10.90L5.07-10.90Q5.07-9.37 6.05-8.28L6.05-8.28Q7.02-7.19 8.40-7.19L8.40-7.19ZM5.07-4.13L5.07-4.13L5.07-3.57L1.06-3.57L1.06-25.19L5.07-25.19L5.07-17.68Q6.63-18.62 8.55-18.62L8.55-18.62Q11.52-18.62 13.62-16.36L13.62-16.36Q15.73-14.11 15.73-10.90L15.73-10.90Q15.73-7.70 13.62-5.45L13.62-5.45Q11.52-3.18 8.55-3.18L8.55-3.18Q6.63-3.18 5.07-4.13Z" transform="translate(308.40869140625 28) " fill="rgb(47, 47, 47)" stroke="rgb(47, 47, 47)" stroke-width="0.052" data-glyph-w="20.33251953125" data-glyph-h="32.3017578125" data-glyph-ascender="25.974609375" data-glyph-descender="-6.3271484375" data-kerning="0"></path><path d="M7.45-14.76Q8.87-14.64 9.35-13.85L9.35-13.85L13.43-14.96Q12.93-16.41 11.28-17.48L11.28-17.48Q9.52-18.62 7.45-18.62L7.45-18.62Q4.75-18.62 3.09-17.45L3.09-17.45Q1.27-16.20 1.27-13.91L1.27-13.91Q1.27-11.84 2.66-10.70L2.66-10.70Q3.72-9.85 5.74-9.46L5.74-9.46Q6.36-9.34 7.37-9.20L7.37-9.20Q8.48-9.07 8.79-9.01L8.79-9.01Q10.19-8.76 10.19-8.20L10.19-8.20Q10.19-7.64 9.34-7.30L9.34-7.30Q8.52-6.98 7.45-7.04L7.45-7.04Q5.56-7.16 4.75-8.22L4.75-8.22L0.61-7.48Q1.41-5.43 3.28-4.28L3.28-4.28Q5.09-3.18 7.45-3.18L7.45-3.18Q10.43-3.18 12.23-4.39L12.23-4.39Q14.20-5.72 14.20-8.20L14.20-8.20Q14.20-10.29 12.81-11.44L12.81-11.44Q11.76-12.31 9.75-12.70L9.75-12.70Q9.11-12.82 8.11-12.94L8.11-12.94Q6.96-13.09 6.68-13.14L6.68-13.14Q5.28-13.37 5.28-13.91L5.28-13.91Q5.28-14.32 5.80-14.56L5.80-14.56Q6.39-14.85 7.45-14.76L7.45-14.76Z" transform="translate(328.7412109375 28) " fill="rgb(47, 47, 47)" stroke="rgb(47, 47, 47)" stroke-width="0.052" data-glyph-w="18.87939453125" data-glyph-h="32.3017578125" data-glyph-ascender="25.974609375" data-glyph-descender="-6.3271484375" data-kerning="0"></path><path d="M16.35-8.90L0.91-8.90L0.91-12.91L16.35-12.91L16.35-8.90Z" transform="translate(347.62060546875 28) " fill="rgb(47, 47, 47)" stroke="rgb(47, 47, 47)" stroke-width="0.052" data-glyph-w="21.255859375" data-glyph-h="32.3017578125" data-glyph-ascender="25.974609375" data-glyph-descender="-6.3271484375" data-kerning="0"></path><path d="M16.35-8.90L0.91-8.90L0.91-12.91L16.35-12.91L16.35-8.90Z" transform="translate(368.87646484375 28) " fill="rgb(47, 47, 47)" stroke="rgb(47, 47, 47)" stroke-width="0.052" data-glyph-w="21.255859375" data-glyph-h="32.3017578125" data-glyph-ascender="25.974609375" data-glyph-descender="-6.3271484375" data-kerning="0"></path><path d="M16.35-8.90L0.91-8.90L0.91-12.91L16.35-12.91L16.35-8.90Z" transform="translate(390.13232421875 28) " fill="rgb(47, 47, 47)" stroke="rgb(47, 47, 47)" stroke-width="0.052" data-glyph-w="21.255859375" data-glyph-h="32.3017578125" data-glyph-ascender="25.974609375" data-glyph-descender="-6.3271484375" data-kerning="0"></path><path d="M16.35-8.90L0.91-8.90L0.91-12.91L16.35-12.91L16.35-8.90Z" transform="translate(411.38818359375 28) " fill="rgb(47, 47, 47)" stroke="rgb(47, 47, 47)" stroke-width="0.052" data-glyph-w="21.255859375" data-glyph-h="32.3017578125" data-glyph-ascender="25.974609375" data-glyph-descender="-6.3271484375" data-kerning="0"></path><path d="M16.35-8.90L0.91-8.90L0.91-12.91L16.35-12.91L16.35-8.90Z" transform="translate(432.64404296875 28) " fill="rgb(47, 47, 47)" stroke="rgb(47, 47, 47)" stroke-width="0.052" data-glyph-w="21.255859375" data-glyph-h="32.3017578125" data-glyph-ascender="25.974609375" data-glyph-descender="-6.3271484375" data-kerning="0"></path></g></svg>
                  </g>
                </g>
                <g
                  id="shape_F8D6smEFOC"
                  ref="shape_F8D6smEFOC"
                  key="shape_F8D6smEFOC"
                  mask=""
                >
                  <g
                    transform="translate(80.15110074321473,228.53426343870308) rotate(0,90.89775046167824,62.86139635068699) scale(1,1)"
                    style="opacity: 1;mix-blend-mode: undefined;"
                    filter=""
                  >
                    <!--普通元素-->
                    <rect fill="rgba(0,0,0,0)" width="201.79550092335649" height="145.72279270137398" x="-10" y="-10"></rect><svg version="1.1" id="圖層_1" xmlns="http://www.w3.org/2000/svg" xmlns:xlink="http://www.w3.org/1999/xlink" x="0px" y="0px" viewBox="-0.06501388549804688 0.06785464286804199 382.7650146484375 264.7055969238281" style="enable-background:new 0 0 382.7 264.8;" xml:space="preserve" width="181.79550092335649" height="125.72279270137398" class="style-removed" preserveAspectRatio="none" data-parent="shape_F8D6smEFOC">

<g>
	<path d="M316.2,92.2l-23.6,9.3l-9.8,3.9c4.2,14.2,5.1,29.6,2.1,45.1c-10,52.2-60.4,86.4-112.5,76.4
		c-15.3-2.9-29-9.3-40.6-18.2c17.1-9.6,35-20.7,53.1-33.1c27.8-19.1,56-42.7,76.3-61.5c-16.9,14.6-42.2,31.5-63.9,46.5
		c-25,17.2-49.8,31.5-72.1,42.5c-23.5-21.8-35.6-54.8-29.1-88.6c10-52.2,60.4-86.4,112.5-76.4c29.7,5.7,53.7,24.5,66.9,49.3l3.2-4.3
		l15.4-20.1c1.8-2.3,3.1-4.8,4.1-7.5c-19.1-26.7-48-46.3-82.7-53C143.6-11.4,74.3,35.7,60.5,107.5c-2.8,14.8-3.1,29.4-1.1,43.5
		c-43.7,40-67.5,75.7-57,90.9c9.7,14.2,46.9,7,94.9-15.5c18,17.9,41.4,30.8,68.3,36c71.8,13.7,141.1-33.3,154.9-105.1
		c4.3-22.5,2.6-44.8-3.9-65.2C316.5,92.1,316.4,92.1,316.2,92.2z M38.7,226.5c-3.9-6.9,7-24.2,28.3-46.4c5.4,14,13.2,27,23,38.5
		C61.8,229.4,42.2,232.5,38.7,226.5z" fill="#120CF4" stroke-width="0"></path>
	<path d="M367.3,39.2L382.7,19l-23.6,9.3c-4.8,1.9-9.8,2.8-14.7,2.8c-8.7,0-17.3-2.8-24.4-8.3L299.8,7.4l9.3,23.6
		c4.7,12,3.4,25.4-3.4,36.1c-0.6,1-1.3,2-2.1,3l-15.4,20.1l23.6-9.3c0.2-0.1,0.4-0.2,0.6-0.2c4.6-1.7,9.4-2.6,14.1-2.6
		c8.7,0,17.3,2.8,24.4,8.3l20.1,15.4l-9.3-23.6C356.7,65.2,358.8,50.4,367.3,39.2z" fill="#120CF4" stroke-width="0"></path>
</g>
</svg>
                  </g>
                </g>
      </svg>