<svg xmlns="http://www.w3.org/2000/svg"
      width="650"
      height="140"
      version="1.1"
      preserveAspectRatio="none"
      class="svg-canvas">
  <g>
    <title>background</title>
    <rect fill="none"
          id="canvas_background"
          height="142"
          width="652"
          y="-1"
          x="-1" />
  </g>
  <g>
    <title>Layer 1</title>
    <g key="shape_oEnKZcWlNX" ref="shape_oEnKZcWlNX" id="shape_oEnKZcWlNX">
      <g id="svg_6"
            transform="translate(46.931884765625,13.519547462463379) scale(1) ">
        <svg xmlns:xlink="http://www.w3.org/1999/xlink"
              xmlns="http://www.w3.org/2000/svg"
              y="-223"
              x="-71"
              id="svg_7"
              data-parent="shape_oEnKZcWlNX"
              data-ligature="true"
              viewBox="0 0 879.0294314381299 516.02943143813"
              height="516.029431"
              width="879.029431"
              version="1.1">
          <g id="svg_8"
                data-height="86"
                data-width="447.65082"
                data-role="text">
            <path id="svg_9"
                  data-kerning="0"
                  data-glyph-descender="-21.501"
                  data-glyph-ascender="71.67"
                  data-glyph-h="93.171"
                  data-glyph-w="65.9364"
                  stroke-width="0.119"
                  stroke="rgb(47, 47, 47)"
                  fill="rgb(47, 47, 47)"
                  d="m277.654709,254.994709l-41.43,0l-6.45,28.52l-14.19,0l10.18,-44.86l-2.22,-2.66l22.29,0l0.21,-1.14l-2.36,-2.73l18.2,0l-0.57,3.87l18.99,0l-2.65,19zm-41.78,4.3l41.13,0l-3.22,22.93l-41.14,0l3.23,-22.93zm9.89,16.34l16.77,0l1.36,-9.75l-16.77,0l-1.36,9.75zm21,-32.83l-27.81,0l-1.22,5.45l28.24,0l0.79,-5.45z" />
            <path id="svg_10"
                  data-kerning="0"
                  data-glyph-descender="-21.501"
                  data-glyph-ascender="71.67"
                  data-glyph-h="93.171"
                  data-glyph-w="65.9364"
                  stroke-width="0.119"
                  stroke="rgb(47, 47, 47)"
                  fill="rgb(47, 47, 47)"
                  d="m334.201111,283.584709l-9.6,0l3.72,-3.94l1.87,-13.62l-8.03,0l-3.22,17.56l-11.54,0l9.1,-50.24l29.38,0l-6.38,45.51q-0.28,2.01 -1.82,3.37q-1.54,1.36 -3.48,1.36l0,0zm-52.32,-2.86l6.17,-43.87l-1.29,-2.07l24.79,0l-6.52,45.94l-23.15,0zm10.32,-6.45l4.73,0l1.94,-13.69l-4.73,0l-1.94,13.69zm4.66,-33.04l-1.79,12.61l4.73,0l1.79,-12.61l-4.73,0zm27.74,11.82l-1.15,6.17l7.74,0l0.86,-6.17l-7.45,0zm2.43,-12.9l-1.14,6.09l7.09,0l0.86,-6.09l-6.81,0z" />
            <path id="svg_11"
                  data-kerning="0"
                  data-glyph-descender="-21.501"
                  data-glyph-ascender="71.67"
                  data-glyph-h="93.171"
                  data-glyph-w="63.57129"
                  stroke-width="0.119"
                  stroke="rgb(47, 47, 47)"
                  fill="rgb(47, 47, 47)"
                  d="m352.837512,238.144709l17.92,0l7.59,25.45l14.41,-25.45l14.48,0l-5.52,40.57l-12.4,0l3.44,-21.36l-10.97,18.64l-11.03,0l-5.52,-17.92l-2.73,20.64l-12.39,0l5.51,-37.84l-2.79,-2.73z" />
            <path id="svg_12"
                  data-kerning="0"
                  data-glyph-descender="-21.501"
                  data-glyph-ascender="71.67"
                  data-glyph-h="93.171"
                  data-glyph-w="54.39753"
                  stroke-width="0.119"
                  stroke="rgb(47, 47, 47)"
                  fill="rgb(47, 47, 47)"
                  d="m417.908801,278.714709l0,0q-1,0 -1.86,-0.36q-0.86,-0.36 -1.47,-1q-0.61,-0.65 -0.82,-1.54q-0.22,-0.9 0.07,-1.9l0,0l4.8,-35.77l43.36,0l-0.72,6.88l-30.24,0l-3.44,26.81l26.8,0l3.44,-2.72l-1.36,9.6l-38.56,0z" />
            <path id="svg_13"
                  data-kerning="0"
                  data-glyph-descender="-21.501"
                  data-glyph-ascender="71.67"
                  data-glyph-h="93.171"
                  data-glyph-w="65.9364"
                  stroke-width="0.119"
                  stroke="rgb(47, 47, 47)"
                  fill="rgb(47, 47, 47)"
                  d="m511.796323,271.114709l10.9,12.47l-15.41,0l-9.32,-10.6l-14.98,10.6l-16.98,0l20.06,-14.26l-18.13,0l0.93,-6.66l27.24,0l2.36,-17.06l13.41,0l-2.37,17.06l16.48,0l-0.93,6.66l-22,0l-2.51,1.79l11.25,0zm-2.22,-39.06l-0.57,4.09l20.64,0l-1.58,10.89l-12.11,0l0.65,-4.3l-32.69,0l-0.43,2.87l11.47,0l2.37,7.09l-12.55,0l-1.93,-5.66l-11.75,0l1.57,-10.89l21.07,0l0.22,-1.51l-2.3,-2.58l17.92,0zm-20.28,21.93l2.65,7.1l-12.47,0l-2.65,-7.1l12.47,0z" />
            <path id="svg_14"
                  data-kerning="0"
                  data-glyph-descender="-21.501"
                  data-glyph-ascender="71.67"
                  data-glyph-h="93.171"
                  data-glyph-w="65.9364"
                  stroke-width="0.119"
                  stroke="rgb(47, 47, 47)"
                  fill="rgb(47, 47, 47)"
                  d="m547.492725,261.154709l-12.97,0l5.59,-18.35l7.45,0l-3.37,11.54l2.51,0l4.52,-14.19l-12.9,0l0.93,-6.81l21.78,0l-0.93,6.81l-4.37,14.19l2.65,0l-3.44,24.51q-0.28,2.08 -1.9,3.41q-1.61,1.32 -3.62,1.32l0,0l-13.83,0l4.59,-6.88l5.09,0l2.22,-15.55zm25.59,-13.26l10.1,0l-1.93,-9.53l-3.3,0l-7.88,15.27l-10.47,0l10.11,-18.78l-2.3,-2.65l22.22,0l5.16,21.35l-10.39,0l-0.86,-4.01l-0.57,5.02l-11.26,0l1.37,-6.67zm12.47,9.68l8.88,0l-6.3,18.2l4.22,0l-0.93,6.67l-35.55,0l0.94,-6.67l22.43,0l6.31,-18.2zm-25.52,0l8.89,0l-0.14,16.77l-8.89,0l0.14,-16.77zm11.25,0l8.89,0l-0.86,16.7l-8.89,0l0.86,-16.7zm-37.62,8.38l11.68,-1.43l-1,7.09l-11.69,1.44l1.01,-7.1z" />
            <path id="svg_15"
                  data-kerning="0"
                  data-glyph-descender="-21.501"
                  data-glyph-ascender="71.67"
                  data-glyph-h="93.171"
                  data-glyph-w="65.9364"
                  stroke-width="0.119"
                  stroke="rgb(47, 47, 47)"
                  fill="rgb(47, 47, 47)"
                  d="m640.659126,232.124709l-0.57,3.95l21.36,0l-1.51,10.89l-4.08,0l-0.72,5.09l-27.23,0l-6.88,5.16l19.78,0l-1.15,-3.73l11.61,0l3.51,11.18l-11.54,0l-0.35,-1.14l-7.17,0l-0.5,3.79l20.49,0l-0.78,5.74l-20.57,0l-0.43,3.37l21.78,0l-0.78,5.59l-57.05,0l0.79,-5.59l21.14,0l0.43,-3.37l-18.42,0l0.79,-5.74l18.49,0l0.5,-3.79l-16.7,0l0.93,-6.38l6.95,-5.09l-6.59,0l0.72,-5.09l-4.02,0l1.51,-10.89l21.28,0l0.22,-1.29l-2.29,-2.66l17.05,0zm-25.01,10.75l-0.5,3.23l32.68,0l0.5,-3.23l-32.68,0z" />
          </g>
        </svg>
      </g>
    </g>
    <g key="shape_DKqhGeARGZ" ref="shape_DKqhGeARGZ" id="shape_DKqhGeARGZ">
      <g id="svg_16"
            style="opacity: 1;mix-blend-mode: undefined;"
            transform="translate(168.94659423828125,221.5342559814453) scale(1) ">
        <svg xmlns:xlink="http://www.w3.org/1999/xlink"
              xmlns="http://www.w3.org/2000/svg"
              y="-223"
              x="-71"
              id="svg_17"
              data-parent="shape_DKqhGeARGZ"
              data-ligature="true"
              viewBox="0 0 651.8813559322034 223"
              height="223"
              width="651.881356"
              version="1.1">
          <g id="svg_18"
                data-height="37"
                data-width="449.899902"
                data-role="text">
            <path id="svg_19"
                  data-kerning="0"
                  data-glyph-descender="-6.327148"
                  data-glyph-ascender="25.974609"
                  data-glyph-h="32.301758"
                  data-glyph-w="21.255859"
                  stroke-width="0.052"
                  stroke="rgb(47, 47, 47)"
                  fill="rgb(47, 47, 47)"
                  d="m109.35,112.1l-15.44,0l0,-4.01l15.44,0l0,4.01z" />
            <path id="svg_20"
                  data-kerning="0"
                  data-glyph-descender="-6.327148"
                  data-glyph-ascender="25.974609"
                  data-glyph-h="32.301758"
                  data-glyph-w="21.255859"
                  stroke-width="0.052"
                  stroke="rgb(47, 47, 47)"
                  fill="rgb(47, 47, 47)"
                  d="m130.605859,112.1l-15.44,0l0,-4.01l15.44,0l0,4.01z" />
            <path id="svg_21"
                  data-kerning="0"
                  data-glyph-descender="-6.327148"
                  data-glyph-ascender="25.974609"
                  data-glyph-h="32.301758"
                  data-glyph-w="21.255859"
                  stroke-width="0.052"
                  stroke="rgb(47, 47, 47)"
                  fill="rgb(47, 47, 47)"
                  d="m151.861719,112.1l-15.44,0l0,-4.01l15.44,0l0,4.01z" />
            <path id="svg_22"
                  data-kerning="0"
                  data-glyph-descender="-6.327148"
                  data-glyph-ascender="25.974609"
                  data-glyph-h="32.301758"
                  data-glyph-w="21.255859"
                  stroke-width="0.052"
                  stroke="rgb(47, 47, 47)"
                  fill="rgb(47, 47, 47)"
                  d="m173.117578,112.1l-15.44,0l0,-4.01l15.44,0l0,4.01z" />
            <path id="svg_23"
                  data-kerning="0"
                  data-glyph-descender="-6.327148"
                  data-glyph-ascender="25.974609"
                  data-glyph-h="32.301758"
                  data-glyph-w="21.255859"
                  stroke-width="0.052"
                  stroke="rgb(47, 47, 47)"
                  fill="rgb(47, 47, 47)"
                  d="m194.373437,112.1l-15.44,0l0,-4.01l15.44,0l0,4.01z" />
            <path id="svg_24"
                  data-kerning="0"
                  data-glyph-descender="-6.327148"
                  data-glyph-ascender="25.974609"
                  data-glyph-h="32.301758"
                  data-glyph-w="24.010742"
                  stroke-width="0.052"
                  stroke="rgb(47, 47, 47)"
                  fill="rgb(47, 47, 47)"
                  d="m213.769297,109.87l0,-14.06l4.01,0l0,21.62l-3.95,0l-9.03,-14.06l0,14.06l-4.01,0l0,-21.62l3.95,0l9.03,14.06z" />
            <path id="svg_25"
                  data-kerning="0"
                  data-glyph-descender="-6.327148"
                  data-glyph-ascender="25.974609"
                  data-glyph-h="32.301758"
                  data-glyph-w="20.650391"
                  stroke-width="0.052"
                  stroke="rgb(47, 47, 47)"
                  fill="rgb(47, 47, 47)"
                  d="m231.620039,102.38q3.19,0 5.46,2.26l0,0q2.25,2.25 2.25,5.46l0,0q0,3.2 -2.25,5.45l0,0q-2.27,2.27 -5.46,2.27l0,0q-3.2,0 -5.47,-2.27l0,0q-2.25,-2.25 -2.25,-5.45l0,0q0,-3.21 2.25,-5.46l0,0q2.27,-2.26 5.47,-2.26l0,0zm0,4.01l0,0q-1.53,0 -2.62,1.09l0,0q-1.09,1.08 -1.09,2.62l0,0q0,1.53 1.09,2.62l0,0q1.09,1.09 2.62,1.09l0,0q1.54,0 2.61,-1.09l0,0q1.09,-1.09 1.09,-2.62l0,0q0,-1.54 -1.09,-2.62l0,0q-1.07,-1.09 -2.61,-1.09z" />
            <path id="svg_26"
                  data-kerning="0"
                  data-glyph-descender="-6.327148"
                  data-glyph-ascender="25.974609"
                  data-glyph-h="32.301758"
                  data-glyph-w="18.879395"
                  stroke-width="0.052"
                  stroke="rgb(47, 47, 47)"
                  fill="rgb(47, 47, 47)"
                  d="m243.94043,102.76l4.3,0l3.13,8.17l3.15,-8.17l4.3,0l-5.63,14.67l-3.62,0l-5.63,-14.67z" />
            <path id="svg_27"
                  data-kerning="0"
                  data-glyph-descender="-6.327148"
                  data-glyph-ascender="25.974609"
                  data-glyph-h="32.301758"
                  data-glyph-w="20.33252"
                  stroke-width="0.052"
                  stroke="rgb(47, 47, 47)"
                  fill="rgb(47, 47, 47)"
                  d="m270.769824,113.81q-1.38,0 -2.35,-1.09l0,0q-0.98,-1.09 -0.98,-2.62l0,0q0,-1.54 0.98,-2.62l0,0q0.97,-1.09 2.35,-1.09l0,0q1.37,0 2.34,1.09l0,0q0.97,1.08 0.97,2.62l0,0q0,1.53 -0.97,2.62l0,0q-0.97,1.09 -2.34,1.09l0,0zm3.31,-10.49q-1.56,-0.94 -3.46,-0.94l0,0q-2.99,0 -5.09,2.26l0,0q-2.1,2.25 -2.1,5.46l0,0q0,3.2 2.1,5.45l0,0q2.1,2.27 5.09,2.27l0,0q1.9,0 3.46,-0.94l0,0l0,0.55l4.01,0l0,-14.67l-4.01,0l0,0.56z" />
            <path id="svg_28"
                  data-kerning="0"
                  data-glyph-descender="-6.327148"
                  data-glyph-ascender="25.974609"
                  data-glyph-h="32.301758"
                  data-glyph-w="11.689453"
                  stroke-width="0.052"
                  stroke="rgb(47, 47, 47)"
                  fill="rgb(47, 47, 47)"
                  d="m283.152344,121z" />
            <path id="svg_29"
                  data-kerning="0"
                  data-glyph-descender="-6.327148"
                  data-glyph-ascender="25.974609"
                  data-glyph-h="32.301758"
                  data-glyph-w="29.414551"
                  stroke-width="0.052"
                  stroke="rgb(47, 47, 47)"
                  fill="rgb(47, 47, 47)"
                  d="m305.861797,111.65l-5.5,-8.47l0,14.25l-4.01,0l0,-21.62l4.01,0l7.18,11.07l7.19,-11.07l4.01,0l0,21.62l-4.01,0l0,-14.26l-5.49,8.48l-3.38,0z" />
            <path id="svg_30"
                  data-kerning="0"
                  data-glyph-descender="-6.327148"
                  data-glyph-ascender="25.974609"
                  data-glyph-h="32.301758"
                  data-glyph-w="25.584961"
                  stroke-width="0.052"
                  stroke="rgb(47, 47, 47)"
                  fill="rgb(47, 47, 47)"
                  d="m336.366348,95.42q-4.65,0 -7.92,3.28l0,0q-3.28,3.29 -3.28,7.92l0,0q0,4.65 3.28,7.92l0,0q3.27,3.28 7.92,3.28l0,0q5.21,0 8.57,-3.99l0,0l-3.08,-2.59q-2.15,2.57 -5.49,2.57l0,0q-2.98,0 -5.09,-2.1l0,0q-2.1,-2.11 -2.1,-5.09l0,0q0,-2.97 2.1,-5.07l0,0q2.11,-2.1 5.09,-2.1l0,0q3.34,0 5.49,2.55l0,0l3.08,-2.57q-3.36,-4.01 -8.57,-4.01l0,0z" />
            <path id="svg_31"
                  data-kerning="0"
                  data-glyph-descender="-6.327148"
                  data-glyph-ascender="25.974609"
                  data-glyph-h="32.301758"
                  data-glyph-w="11.689453"
                  stroke-width="0.052"
                  stroke="rgb(47, 47, 47)"
                  fill="rgb(47, 47, 47)"
                  d="m349.841309,121z" />
            <path id="svg_32"
                  data-kerning="0"
                  data-glyph-descender="-6.327148"
                  data-glyph-ascender="25.974609"
                  data-glyph-h="32.301758"
                  data-glyph-w="19.54541"
                  stroke-width="0.052"
                  stroke="rgb(47, 47, 47)"
                  fill="rgb(47, 47, 47)"
                  d="m367.050762,95.81l0,17.61l9.12,0l0,4.01l-13.13,0l0,-21.62l4.01,0z" />
            <path id="svg_33"
                  data-kerning="0"
                  data-glyph-descender="-6.327148"
                  data-glyph-ascender="25.974609"
                  data-glyph-h="32.301758"
                  data-glyph-w="20.33252"
                  stroke-width="0.052"
                  stroke="rgb(47, 47, 47)"
                  fill="rgb(47, 47, 47)"
                  d="m389.026172,113.81q-1.38,0 -2.35,-1.09l0,0q-0.98,-1.09 -0.98,-2.62l0,0q0,-1.54 0.98,-2.62l0,0q0.97,-1.09 2.35,-1.09l0,0q1.37,0 2.34,1.09l0,0q0.97,1.08 0.97,2.62l0,0q0,1.53 -0.97,2.62l0,0q-0.97,1.09 -2.34,1.09l0,0zm3.31,-10.49q-1.56,-0.94 -3.46,-0.94l0,0q-2.99,0 -5.09,2.26l0,0q-2.1,2.25 -2.1,5.46l0,0q0,3.2 2.1,5.45l0,0q2.1,2.27 5.09,2.27l0,0q1.9,0 3.46,-0.94l0,0l0,0.55l4.01,0l0,-14.67l-4.01,0l0,0.56z" />
            <path id="svg_34"
                  data-kerning="0"
                  data-glyph-descender="-6.327148"
                  data-glyph-ascender="25.974609"
                  data-glyph-h="32.301758"
                  data-glyph-w="20.33252"
                  stroke-width="0.052"
                  stroke="rgb(47, 47, 47)"
                  fill="rgb(47, 47, 47)"
                  d="m409.808691,113.81q1.38,0 2.35,-1.09l0,0q0.97,-1.09 0.97,-2.62l0,0q0,-1.54 -0.97,-2.62l0,0q-0.97,-1.09 -2.35,-1.09l0,0q-1.38,0 -2.35,1.09l0,0q-0.98,1.08 -0.98,2.62l0,0q0,1.53 0.98,2.62l0,0q0.97,1.09 2.35,1.09l0,0zm-3.33,3.06l0,0l0,0.56l-4.01,0l0,-21.62l4.01,0l0,7.51q1.56,-0.94 3.48,-0.94l0,0q2.97,0 5.07,2.26l0,0q2.11,2.25 2.11,5.46l0,0q0,3.2 -2.11,5.45l0,0q-2.1,2.27 -5.07,2.27l0,0q-1.92,0 -3.48,-0.95z" />
            <path id="svg_35"
                  data-kerning="0"
                  data-glyph-descender="-6.327148"
                  data-glyph-ascender="25.974609"
                  data-glyph-h="32.301758"
                  data-glyph-w="18.879395"
                  stroke-width="0.052"
                  stroke="rgb(47, 47, 47)"
                  fill="rgb(47, 47, 47)"
                  d="m429.191211,106.24q1.42,0.12 1.9,0.91l0,0l4.08,-1.11q-0.5,-1.45 -2.15,-2.52l0,0q-1.76,-1.14 -3.83,-1.14l0,0q-2.7,0 -4.36,1.17l0,0q-1.82,1.25 -1.82,3.54l0,0q0,2.07 1.39,3.21l0,0q1.06,0.85 3.08,1.24l0,0q0.62,0.12 1.63,0.26l0,0q1.11,0.13 1.42,0.19l0,0q1.4,0.25 1.4,0.81l0,0q0,0.56 -0.85,0.9l0,0q-0.82,0.32 -1.89,0.26l0,0q-1.89,-0.12 -2.7,-1.18l0,0l-4.14,0.74q0.8,2.05 2.67,3.2l0,0q1.81,1.1 4.17,1.1l0,0q2.98,0 4.78,-1.21l0,0q1.97,-1.33 1.97,-3.81l0,0q0,-2.09 -1.39,-3.24l0,0q-1.05,-0.87 -3.06,-1.26l0,0q-0.64,-0.12 -1.64,-0.24l0,0q-1.15,-0.15 -1.43,-0.2l0,0q-1.4,-0.23 -1.4,-0.77l0,0q0,-0.41 0.52,-0.65l0,0q0.59,-0.29 1.65,-0.2l0,0z" />
            <path id="svg_36"
                  data-kerning="0"
                  data-glyph-descender="-6.327148"
                  data-glyph-ascender="25.974609"
                  data-glyph-h="32.301758"
                  data-glyph-w="21.255859"
                  stroke-width="0.052"
                  stroke="rgb(47, 47, 47)"
                  fill="rgb(47, 47, 47)"
                  d="m456.970605,112.1l-15.44,0l0,-4.01l15.44,0l0,4.01z" />
            <path id="svg_37"
                  data-kerning="0"
                  data-glyph-descender="-6.327148"
                  data-glyph-ascender="25.974609"
                  data-glyph-h="32.301758"
                  data-glyph-w="21.255859"
                  stroke-width="0.052"
                  stroke="rgb(47, 47, 47)"
                  fill="rgb(47, 47, 47)"
                  d="m478.226465,112.1l-15.44,0l0,-4.01l15.44,0l0,4.01z" />
            <path id="svg_38"
                  data-kerning="0"
                  data-glyph-descender="-6.327148"
                  data-glyph-ascender="25.974609"
                  data-glyph-h="32.301758"
                  data-glyph-w="21.255859"
                  stroke-width="0.052"
                  stroke="rgb(47, 47, 47)"
                  fill="rgb(47, 47, 47)"
                  d="m499.482324,112.1l-15.44,0l0,-4.01l15.44,0l0,4.01z" />
            <path id="svg_39"
                  data-kerning="0"
                  data-glyph-descender="-6.327148"
                  data-glyph-ascender="25.974609"
                  data-glyph-h="32.301758"
                  data-glyph-w="21.255859"
                  stroke-width="0.052"
                  stroke="rgb(47, 47, 47)"
                  fill="rgb(47, 47, 47)"
                  d="m520.738184,112.1l-15.44,0l0,-4.01l15.44,0l0,4.01z" />
            <path id="svg_40"
                  data-kerning="0"
                  data-glyph-descender="-6.327148"
                  data-glyph-ascender="25.974609"
                  data-glyph-h="32.301758"
                  data-glyph-w="21.255859"
                  stroke-width="0.052"
                  stroke="rgb(47, 47, 47)"
                  fill="rgb(47, 47, 47)"
                  d="m541.994043,112.1l-15.44,0l0,-4.01l15.44,0l0,4.01z" />
          </g>
        </svg>
      </g>
    </g>
    <g key="shape_F8D6smEFOC" ref="shape_F8D6smEFOC" id="shape_F8D6smEFOC">
      <g id="svg_41"
            transform="translate(80.1511001586914,228.5342559814453) scale(1) ">
        <rect id="svg_42"
              y="-231"
              x="-77"
              height="145.722793"
              width="201.795501"
              fill="rgba(0,0,0,0)" />
        <g y="-223" x="-71" id="svg_48">
          <svg xmlns:xlink="http://www.w3.org/1999/xlink"
                xmlns="http://www.w3.org/2000/svg"
                data-parent="shape_F8D6smEFOC"
                preserveAspectRatio="none"
                class="style-removed"
                height="125.722793"
                width="181.795501"
                xml:space="preserve"
                viewBox="-0.06501388549804688 0.06785464286804199 382.7650146484375 264.7055969238281"
                y="-221"
                x="-72"
                id="svg_3"
                version="1.1">
            <g id="svg_43">
              <path id="svg_44"
                    stroke-width="0"
                    fill="#120CF4"
                    d="m316.2,92.2l-23.6,9.3l-9.8,3.9c4.2,14.2 5.1,29.6 2.1,45.1c-10,52.2 -60.4,86.4 -112.5,76.4c-15.3,-2.9 -29,-9.3 -40.6,-18.2c17.1,-9.6 35,-20.7 53.1,-33.1c27.8,-19.1 56,-42.7 76.3,-61.5c-16.9,14.6 -42.2,31.5 -63.9,46.5c-25,17.2 -49.8,31.5 -72.1,42.5c-23.5,-21.8 -35.6,-54.8 -29.1,-88.6c10,-52.2 60.4,-86.4 112.5,-76.4c29.7,5.7 53.7,24.5 66.9,49.3l3.2,-4.3l15.4,-20.1c1.8,-2.3 3.1,-4.8 4.1,-7.5c-19.1,-26.7 -48,-46.3 -82.7,-53c-71.9,-13.9 -141.2,33.2 -155,105c-2.8,14.8 -3.1,29.4 -1.1,43.5c-43.7,40 -67.5,75.7 -57,90.9c9.7,14.2 46.9,7 94.9,-15.5c18,17.9 41.4,30.8 68.3,36c71.8,13.7 141.1,-33.3 154.9,-105.1c4.3,-22.5 2.6,-44.8 -3.9,-65.2c-0.1,0 -0.2,0 -0.4,0.1zm-277.5,134.3c-3.9,-6.9 7,-24.2 28.3,-46.4c5.4,14 13.2,27 23,38.5c-28.2,10.8 -47.8,13.9 -51.3,7.9z" />
              <path id="svg_45"
                    stroke-width="0"
                    fill="#120CF4"
                    d="m367.3,39.2l15.4,-20.2l-23.6,9.3c-4.8,1.9 -9.8,2.8 -14.7,2.8c-8.7,0 -17.3,-2.8 -24.4,-8.3l-20.2,-15.4l9.3,23.6c4.7,12 3.4,25.4 -3.4,36.1c-0.6,1 -1.3,2 -2.1,3l-15.4,20.1l23.6,-9.3c0.2,-0.1 0.4,-0.2 0.6,-0.2c4.6,-1.7 9.4,-2.6 14.1,-2.6c8.7,0 17.3,2.8 24.4,8.3l20.1,15.4l-9.3,-23.6c-5,-13 -2.9,-27.8 5.6,-39z" />
            </g>
          </svg>
        </g>
      </g>
    </g>
  </g>
</svg>
